<?xml version="1.0" standalone="no"?>
<!DOCTYPE svg PUBLIC "-//W3C//DTD SVG 20010904//EN"
 "http://www.w3.org/TR/2001/REC-SVG-20010904/DTD/svg10.dtd">
<svg version="1.0" xmlns="http://www.w3.org/2000/svg"
 width="480.000000pt" height="521.000000pt" viewBox="0 0 480.000000 521.000000"
 preserveAspectRatio="xMidYMid meet">

<g transform="translate(0.000000,521.000000) scale(0.100000,-0.100000)"
fill="#000000" stroke="none">
<path d="M1269 3831 c-618 -622 -1129 -1144 -1136 -1159 -18 -40 -16 -80 7
-126 13 -28 381 -403 1140 -1161 l1120 -1120 1115 1115 c614 613 1125 1129
1136 1147 25 40 27 118 4 164 -10 19 -225 240 -479 492 -253 252 -758 755
-1122 1118 l-661 661 -1124 -1131z m1486 -866 l350 -344 -350 -350 c-192 -193
-354 -351 -360 -351 -12 0 -695 681 -695 693 0 8 691 696 700 696 3 0 163
-154 355 -344z"/>
</g>
</svg>
